<svg id="Capa_1" data-name="Capa 1" xmlns="http://www.w3.org/2000/svg" viewBox="0 0 500 333.33"><path d="M224.52,211.9a22.47,22.47,0,0,1-3.09-2.11c-6.51-6.44-13-12.95-19.45-19.41-1.91-1.9-1.84-3.74,0-5.59q22.54-22.53,45.11-45c2.14-2.13,3.56-1.86,6.19.77Q266,153.22,278.77,166L297,184.13c2.72,2.72,2.72,4,0,6.86-.47.49-1,1-1.44,1.46-2.9,2.88-4.17,3-7.06.07Q270.86,175,253.31,157.39c-3.52-3.52-3.5-3.52-7.09.09l-27.34,27.28c-2.61,2.6-2.63,3.05,0,5.64,6.4,6.26,4.78,6.39,11.24,0,5.47-5.41,10.86-10.92,16.34-16.32,2.68-2.64,3.94-2.64,6.63,0q13.68,13.65,27.31,27.35c2.26,2.28,2.24,3.66.1,6-4.94,5.4-5.56,5.4-10.78.18-5.78-5.8-11.64-11.52-17.35-17.39-1.94-2-3.34-2-5.3,0-6.25,6.44-12.63,12.74-19,19A32,32,0,0,1,224.52,211.9Z" style="fill:#fdde19"/><path d="M240.4,128.54a34.92,34.92,0,0,1-2.86,3.77q-16.08,16.17-32.22,32.26c-3.86,3.86-7.7,7.74-11.59,11.56-2.34,2.28-3.62,2.24-6,0-5.41-5.1-5.39-5.53-.11-10.78q16.92-16.78,33.75-33.62c2.94-2.94,2.94-3.28.11-6.12q-13.92-14-27.9-27.9c-2.61-2.61-3.13-2.64-5.67,0-6,6.17-6.52,4.63-.15,11l16.5,16.57c2.67,2.69,2.73,3.85,0,6.59q-13.47,13.59-27,27.12c-2.69,2.68-3.87,2.63-6.62,0-5-4.77-5-5.29-.14-10.15q8.79-8.78,17.56-17.58c2.45-2.48,2.42-2.91-.09-5.44q-9.48-9.54-19-19c-2.9-2.91-2.92-4.15,0-7q9-9.19,18.16-18.19c3.06-3,4.24-3,7.29.06q21.83,21.78,43.6,43.63A27.88,27.88,0,0,1,240.4,128.54Z" style="fill:#e94545"/><path d="M333.21,103.3a31.81,31.81,0,0,1-2.58,3.44c-6.24,6.31-12.53,12.57-18.79,18.85-2.82,2.82-2.86,3.11-.14,5.86,6.3,6.39,12.66,12.71,19,19.09,2.8,2.82,2.76,4-.07,6.79l-18.19,18.2c-3,3-4.15,3-7,.14q-21.93-21.78-43.67-43.62c-2.92-2.93-2.9-4.06.07-7q21.78-21.85,43.61-43.66c2.64-2.64,4-2.63,6.66-.12.57.54,1.13,1.08,1.67,1.65,2.81,3,2.8,4.23-.07,7.09L278.5,125.12c-3.36,3.36-3.45,3.45,0,6.91,9.32,9.43,18.73,18.76,28.07,28.16,1.47,1.48,2.78,1.6,4.24.08,7.3-7.6,7.35-5.23.31-12.46-5.06-5.18-10.22-10.18-15.35-15.32-3.35-3.36-3.3-4.48.14-7.91q12.52-12.49,25-25c4.47-4.48,5-4.5,9.52.16A36.61,36.61,0,0,1,333.21,103.3Z" style="fill:#48b3e2"/><path d="M217.43,53c.34-2.59,4.92-7.34,6.72-7.2a6.26,6.26,0,0,1,3.45,1.76c6.49,6.33,12.87,12.76,19.3,19.15,2.63,2.6,3.1,2.62,5.69,0q9.43-9.38,18.8-18.82c3-3,4.31-3,7.28-.06l17.79,17.83c3.37,3.37,3.39,4.4.12,7.68l-42.81,42.78c-3.64,3.64-4.43,3.63-8.07,0Q224.34,94.63,203,73.26c-3.25-3.26-3.21-4.37.1-7.7.48-.48,1-1,1.47-1.42,2.44-2.29,3.57-2.35,5.92,0q10.41,10.26,20.75,20.6c5.38,5.37,10.76,10.74,16.08,16.16,1.57,1.6,2.9,2,4.65.25q14.81-15,29.7-29.82a2.24,2.24,0,0,0,.47-3.14,1.81,1.81,0,0,0-.41-.42l-.61-.63c-6.93-6.8-5.21-6.73-11.87-.1q-8.07,8-16.13,16.09c-2.59,2.57-4,2.61-6.66,0q-13.56-13.5-27-27.14A15.79,15.79,0,0,1,217.43,53Z" style="fill:#90c145"/><text transform="translate(99.31 279.52)" style="font-size:72px;fill:#3c3c3b;font-family:Gugi-Regular, Gugi">d98c_sw</text></svg>